<?xml version="1.0" standalone="no"?>
<!DOCTYPE svg PUBLIC "-//W3C//DTD SVG 20010904//EN"
 "http://www.w3.org/TR/2001/REC-SVG-20010904/DTD/svg10.dtd">
<svg version="1.0" xmlns="http://www.w3.org/2000/svg"
 width="1105.000000pt" height="1105.000000pt" viewBox="0 0 1105.000000 1105.000000"
 preserveAspectRatio="xMidYMid meet">
<metadata>
Created by potrace 1.14, written by Peter Selinger 2001-2017
</metadata>
<g transform="translate(0.000000,1105.000000) scale(0.100000,-0.100000)"
fill="#000000" stroke="none">
<path d="M5258 10595 c-2 -2 -44 -7 -93 -10 -122 -9 -224 -19 -295 -30 -14 -2
-45 -7 -70 -10 -61 -8 -274 -46 -280 -50 -3 -2 -21 -6 -40 -9 -27 -4 -239 -56
-325 -80 -5 -1 -30 -8 -55 -15 -335 -93 -816 -304 -1165 -511 -138 -82 -450
-294 -485 -330 -3 -3 -30 -24 -60 -47 -30 -23 -67 -53 -81 -65 -15 -13 -47
-40 -72 -61 -184 -154 -469 -444 -626 -637 -20 -25 -39 -47 -42 -50 -3 -3 -25
-32 -50 -65 -24 -33 -47 -62 -50 -65 -29 -24 -309 -450 -309 -470 0 -5 -4 -10
-10 -10 -5 0 -10 -4 -10 -8 0 -5 -28 -58 -61 -118 -90 -161 -195 -381 -262
-554 -14 -36 -31 -78 -38 -95 -7 -16 -13 -34 -15 -40 -2 -5 -26 -76 -54 -157
-42 -124 -128 -433 -144 -518 -2 -14 -11 -59 -20 -100 -8 -41 -17 -93 -21
-115 -3 -22 -10 -65 -15 -95 -5 -30 -11 -73 -14 -95 -3 -22 -8 -58 -10 -80
-24 -186 -31 -316 -31 -595 0 -238 8 -449 20 -523 2 -12 8 -62 14 -112 20
-167 34 -254 66 -410 29 -142 95 -397 115 -450 7 -16 14 -41 16 -54 5 -22 62
-185 106 -301 130 -339 318 -699 526 -1005 66 -98 237 -332 252 -345 3 -3 29
-34 59 -70 164 -199 403 -442 597 -607 12 -10 41 -35 65 -55 327 -278 801
-572 1199 -745 341 -148 724 -269 1050 -332 185 -36 166 -33 260 -46 30 -4 62
-9 70 -10 8 -2 47 -6 85 -10 39 -4 78 -9 87 -11 141 -25 849 -25 1008 0 14 2
57 7 95 11 39 4 78 9 89 11 10 2 39 6 65 9 67 8 148 22 311 56 698 145 1386
455 1966 885 121 89 115 84 224 174 167 137 394 355 545 524 39 43 75 84 80
90 294 328 624 860 818 1316 114 269 240 658 283 875 2 11 6 31 9 45 10 43 33
163 39 200 3 19 7 44 10 55 2 11 7 43 10 70 4 28 8 61 11 75 2 14 7 50 10 80
3 30 7 69 9 85 21 162 29 720 13 890 -4 44 -10 107 -13 140 -5 55 -38 298 -50
370 -2 17 -18 95 -35 175 -145 685 -436 1345 -843 1909 -95 132 -226 300 -285
365 -116 128 -158 172 -266 281 -66 66 -141 138 -165 160 -75 67 -194 168
-229 195 -18 14 -38 30 -44 36 -64 58 -494 354 -515 354 -6 0 -12 4 -14 8 -1
5 -30 23 -63 42 -294 161 -311 170 -520 263 -240 107 -656 248 -833 282 -9 1
-35 8 -57 13 -22 6 -51 13 -65 16 -14 3 -50 10 -80 16 -70 14 -203 37 -255 44
-152 21 -189 26 -265 32 -47 3 -94 9 -105 11 -23 6 -671 13 -677 8z"/>
</g>
</svg>
